<svg xmlns="http://www.w3.org/2000/svg" viewBox="0 0 222.6 189.64"><g id="Слой_2" data-name="Слой 2"><g id="Layer_1" data-name="Layer 1"><path d="M54.67,156H.5V143.79l48.83-51.5a51.59,51.59,0,0,0,6.5-9.6A20.23,20.23,0,0,0,58.17,73c0-4.25-.33-7-2.72-10.51C53.2,59.2,47.06,57.07,43.17,57c-5-.14-10.09,1.69-12.67,5A27.94,27.94,0,0,0,25.11,75.9L1.6,75.6c.59-6.06,2-14.85,4.31-19.58A41.2,41.2,0,0,1,14.6,43.93a36.24,36.24,0,0,1,12-7.62A39.51,39.51,0,0,1,41,33.68a44.51,44.51,0,0,1,13.87,2.19,34.52,34.52,0,0,1,12,6.73c3.5,3,9.47,8.94,11.56,13.54a38.7,38.7,0,0,1,3.14,16.14A42.15,42.15,0,0,1,80.1,83.8a41.39,41.39,0,0,1-4,9.51,53.69,53.69,0,0,1-5.84,8.15Q67,105.26,63.46,109L39.52,133.5l26.68.24" style="fill:none;stroke:#000;stroke-miterlimit:10"/><circle cx="70.33" cy="134.17" r="4.13" style="fill:none;stroke:#000;stroke-miterlimit:10"/><path d="M71.63,18.9A92.15,92.15,0,0,1,127.78.5a94.32,94.32,0,0,1,0,188.64c-30.09,0-55.84-11.23-73.11-33.18" style="fill:none;stroke:#000;stroke-miterlimit:10"/><polygon points="74.88 23.79 63.78 26.43 67.94 14.74 74.88 23.79" style="fill:none;stroke:#000;stroke-miterlimit:10"/></g></g></svg>