<svg xmlns="http://www.w3.org/2000/svg" viewBox="0 0 219.68 189.64"><g id="Слой_2" data-name="Слой 2"><g id="Layer_1" data-name="Layer 1"><path d="M51.24,155.54a58,58,0,0,1-12,1.06,44.84,44.84,0,0,1-12.71-1.75,36.36,36.36,0,0,1-11.31-5.46,35.78,35.78,0,0,1-8.95-9.5C3.75,136,.53,125.27.5,119.1L21.7,119a21.4,21.4,0,0,0,5.63,10.1,14.24,14.24,0,0,0,10.75,4.31,15.61,15.61,0,0,0,5-.84A12.82,12.82,0,0,0,47.51,130a13.3,13.3,0,0,0,3.24-4.54A16.56,16.56,0,0,0,52,118.51a14.68,14.68,0,0,0-1.73-7.4,13.12,13.12,0,0,0-4.51-4.67A19.37,19.37,0,0,0,39.44,104a34,34,0,0,0-7.07-.71l-1.53-.09-.09-20.09,2.06.09a32.39,32.39,0,0,0,6.25-.61,14.54,14.54,0,0,0,5.36-2.18,11.42,11.42,0,0,0,3.78-4.24,14.62,14.62,0,0,0,1.4-7q0-6.28-3.72-9.59a12.25,12.25,0,0,0-8.44-3.27c-3.26,0-6.48.72-8.87,3.09s-2.94,3.51-3.65,7.46L3.58,66.42A36.5,36.5,0,0,1,8.33,50.64a36.1,36.1,0,0,1,8.31-9.27,35.61,35.61,0,0,1,10.51-5.64,36.93,36.93,0,0,1,11.68-1.95A39.76,39.76,0,0,1,51.27,35.7a31,31,0,0,1,10.84,6,22,22,0,0,1,5.55,6.38" style="fill:none;stroke:#000;stroke-miterlimit:10"/><circle cx="68.42" cy="51.84" r="4.13" style="fill:none;stroke:#000;stroke-miterlimit:10"/><path d="M68.34,19.17A92.12,92.12,0,0,1,124.4.5a94.32,94.32,0,0,1,.91,188.64c-30.1.14-56.7-11.74-74.07-33.6" style="fill:none;stroke:#000;stroke-miterlimit:10"/><polygon points="71.61 24.05 60.52 26.73 64.62 15.03 71.61 24.05" style="fill:none;stroke:#000;stroke-miterlimit:10"/></g></g></svg>