<svg xmlns="http://www.w3.org/2000/svg" viewBox="0 0 220.04 189.64"><g id="Слой_2" data-name="Слой 2"><g id="Layer_1" data-name="Layer 1"><path d="M51,153a41.65,41.65,0,0,1-12.06,1.46,41.16,41.16,0,0,1-13-2.05,39.22,39.22,0,0,1-11.26-5.83,36.69,36.69,0,0,1-8.69-9.28A39.6,39.6,0,0,1,.59,125l21.81-7.72a19.84,19.84,0,0,0,5.91,10,14.9,14.9,0,0,0,10.33,3.94,14.9,14.9,0,0,0,10.62-4.27q4.49-4.28,4.49-12.64a17.8,17.8,0,0,0-1.86-8.54,15.53,15.53,0,0,0-4.77-5.5,18.15,18.15,0,0,0-6.63-2.87,34,34,0,0,0-7.41-.83,63,63,0,0,0-12.32,1.4,64.12,64.12,0,0,0-12.33,3.69L23.59,35.14H77.83V56.52H39.21L34.44,76.43c1.52-.43,0,0,1.85-.16S39.83,76,41.35,76a34.54,34.54,0,0,1,7.83.87" style="fill:none;stroke:#000;stroke-miterlimit:10"/><circle cx="53.59" cy="77.27" r="4.13" style="fill:none;stroke:#000;stroke-miterlimit:10"/><path d="M69.07,18.9A92.15,92.15,0,0,1,125.22.5,94.32,94.32,0,1,1,51,153" style="fill:none;stroke:#000;stroke-miterlimit:10"/><polygon points="72.32 23.79 61.22 26.43 65.37 14.74 72.32 23.79" style="fill:none;stroke:#000;stroke-miterlimit:10"/></g></g></svg>