<!-- Generator: Adobe Illustrator 25.0.0, SVG Export Plug-In  -->
<svg version="1.1" xmlns="http://www.w3.org/2000/svg" xmlns:xlink="http://www.w3.org/1999/xlink" x="0px" y="0px" width="14.9px"
	 height="14.9px" viewBox="0 0 14.9 14.9" style="overflow:visible;enable-background:new 0 0 14.9 14.9;" xml:space="preserve">
<style type="text/css">
	.st0{fill:#020201;}
	.st1{fill:#FFFFFF;}
</style>
<defs>
</defs>
<circle class="st0" cx="7.4" cy="7.4" r="7.4"/>
<path class="st1" d="M7.2,12H7c-2.7,0-4-2.1-4.2-3.2C2.7,8.5,2.9,8.2,3.2,8.1c0.3-0.1,0.6,0.1,0.6,0.4c0,0.1,0.6,2.3,3.2,2.3h0.1
	c2.6,0,3.2-2.2,3.2-2.3c0.1-0.3,0.4-0.5,0.6-0.4c0.3,0.1,0.5,0.4,0.4,0.7C11.1,9.9,9.9,12,7.2,12z"/>
<circle class="st1" cx="4.8" cy="6" r="0.9"/>
<circle class="st1" cx="9.9" cy="6" r="0.9"/>
</svg>
