<svg width="106" height="77" viewBox="0 0 106 77" fill="none" xmlns="http://www.w3.org/2000/svg">
<g filter="url(#filter0_dd_185:802)">
<path fill-rule="evenodd" clip-rule="evenodd" d="M54.4202 51.3595C53.5831 52.4467 52.2259 52.4467 51.3889 51.3595L50.8838 50.7356C50.0017 49.646 49.5607 49.1012 49.0152 48.7092C48.532 48.3619 47.9907 48.1036 47.4167 47.9466C46.7688 47.7693 46.0678 47.7693 44.6659 47.7693H25.4197C22.492 47.7693 21.4303 47.4626 20.36 46.8866C19.2897 46.3107 18.4497 45.4655 17.8773 44.3886C17.3048 43.3117 17 42.2435 17 39.2977V17.4716C17 14.5258 17.3048 13.4576 17.8773 12.3807C18.4497 11.3038 19.2897 10.4586 20.36 9.88266C21.4303 9.30671 22.492 9 25.4197 9H80.8272C83.7549 9 84.8166 9.30671 85.8869 9.88266C86.9573 10.4586 87.7973 11.3038 88.3697 12.3807C88.9421 13.4576 89.2469 14.5258 89.2469 17.4716V39.2977C89.2469 42.2435 88.9421 43.3117 88.3697 44.3886C87.7973 45.4655 86.9573 46.3107 85.8869 46.8866C84.8166 47.4626 83.7549 47.7693 80.8272 47.7693H61.9458C59.0241 47.7693 56.2586 49.0886 54.4202 51.3595V51.3595Z" fill="white"/>
<path fill-rule="evenodd" clip-rule="evenodd" d="M54.4202 51.3595C53.5831 52.4467 52.2259 52.4467 51.3889 51.3595L50.8838 50.7356C50.0017 49.646 49.5607 49.1012 49.0152 48.7092C48.532 48.3619 47.9907 48.1036 47.4167 47.9466C46.7688 47.7693 46.0678 47.7693 44.6659 47.7693H25.4197C22.492 47.7693 21.4303 47.4626 20.36 46.8866C19.2897 46.3107 18.4497 45.4655 17.8773 44.3886C17.3048 43.3117 17 42.2435 17 39.2977V17.4716C17 14.5258 17.3048 13.4576 17.8773 12.3807C18.4497 11.3038 19.2897 10.4586 20.36 9.88266C21.4303 9.30671 22.492 9 25.4197 9H80.8272C83.7549 9 84.8166 9.30671 85.8869 9.88266C86.9573 10.4586 87.7973 11.3038 88.3697 12.3807C88.9421 13.4576 89.2469 14.5258 89.2469 17.4716V39.2977C89.2469 42.2435 88.9421 43.3117 88.3697 44.3886C87.7973 45.4655 86.9573 46.3107 85.8869 46.8866C84.8166 47.4626 83.7549 47.7693 80.8272 47.7693H61.9458C59.0241 47.7693 56.2586 49.0886 54.4202 51.3595V51.3595Z" stroke="#F7F7F7"/>
</g>
<defs>
<filter id="filter0_dd_185:802" x="0.5" y="0.5" width="105.247" height="76.1748" filterUnits="userSpaceOnUse" color-interpolation-filters="sRGB">
<feFlood flood-opacity="0" result="BackgroundImageFix"/>
<feColorMatrix in="SourceAlpha" type="matrix" values="0 0 0 0 0 0 0 0 0 0 0 0 0 0 0 0 0 0 127 0" result="hardAlpha"/>
<feOffset dy="8"/>
<feGaussianBlur stdDeviation="8"/>
<feColorMatrix type="matrix" values="0 0 0 0 0.196487 0 0 0 0 0.196487 0 0 0 0 0.279476 0 0 0 0.06 0"/>
<feBlend mode="multiply" in2="BackgroundImageFix" result="effect1_dropShadow_185:802"/>
<feColorMatrix in="SourceAlpha" type="matrix" values="0 0 0 0 0 0 0 0 0 0 0 0 0 0 0 0 0 0 127 0" result="hardAlpha"/>
<feOffset dy="8"/>
<feGaussianBlur stdDeviation="4"/>
<feColorMatrix type="matrix" values="0 0 0 0 0.196487 0 0 0 0 0.196487 0 0 0 0 0.279476 0 0 0 0.08 0"/>
<feBlend mode="multiply" in2="effect1_dropShadow_185:802" result="effect2_dropShadow_185:802"/>
<feBlend mode="normal" in="SourceGraphic" in2="effect2_dropShadow_185:802" result="shape"/>
</filter>
</defs>
</svg>
